<mxfile host="app.diagrams.net" modified="2023-12-11T13:36:55.664Z" agent="Mozilla/5.0 (Windows NT 10.0; Win64; x64) AppleWebKit/537.36 (KHTML, like Gecko) Chrome/120.0.0.0 Safari/537.36" version="22.1.7" etag="a8Ql-qjGbrMgz_8jsE4r" type="github">
  <diagram name="Страница — 1" id="K7_3IRRJhVMm8eNUuH6f">
    <mxGraphModel>
      <root>
        <mxCell id="0" />
        <mxCell id="1" parent="0" />
      </root>
    </mxGraphModel>
  </diagram>
</mxfile>
